<svg id="Layer_1" data-name="Layer 1" xmlns="http://www.w3.org/2000/svg" viewBox="0 0 18.33 23.88"><defs><style>.cls-1{fill:#888}</style></defs><path class="cls-1" d="M13.24 11.47a.74.74 0 01-.74-.74V4.44a3.12 3.12 0 00-3.29-2.91 3.12 3.12 0 00-3.29 2.91v6.06a.74.74 0 01-1.48 0V4.44A4.6 4.6 0 019.21 0 4.6 4.6 0 0114 4.44v6.28a.74.74 0 01-.76.75z" transform="translate(-.05 -.05)"/><path class="cls-1" d="M17.64 23.92H.79a.74.74 0 01-.79-.74V8.37a.74.74 0 01.74-.74h16.9a.74.74 0 01.74.74v14.81a.74.74 0 01-.74.74zM1.53 22.44h15.36V9.11H1.53z" transform="translate(-.05 -.05)"/></svg>