<?xml version="1.0" encoding="UTF-8"?>
<svg xmlns="http://www.w3.org/2000/svg" xmlns:xlink="http://www.w3.org/1999/xlink" xmlns:svgjs="http://svgjs.com/svgjs" version="1.1" width="512" height="512" x="0" y="0" viewBox="0 0 176 176" style="enable-background:new 0 0 512 512" xml:space="preserve" class="">
  <g>
    <g xmlns="http://www.w3.org/2000/svg" id="Layer_2" data-name="Layer 2">
      <g id="facebook">
        <rect id="background" fill="#06c100" height="176" rx="24" width="176" data-original="#3a559f" style="" class=""/>
        <path id="icon" d="m115.88 77.58-1.77 15.33a2.87 2.87 0 0 1 -2.82 2.57h-16l-.08 45.45a2.05 2.05 0 0 1 -2 2.07h-16.21a2 2 0 0 1 -2-2.08v-45.44h-12a2.87 2.87 0 0 1 -2.84-2.9l-.06-15.33a2.88 2.88 0 0 1 2.84-2.92h12.06v-14.8c0-17.18 10.2-26.53 25.16-26.53h12.26a2.88 2.88 0 0 1 2.85 2.92v12.9a2.88 2.88 0 0 1 -2.85 2.92h-7.52c-8.13 0-9.71 4-9.71 9.78v12.81h17.87a2.88 2.88 0 0 1 2.82 3.25z" fill="#ffffff" data-original="#ffffff" style=""/>
      </g>
    </g>
  </g>
</svg>
