<svg width="71" height="71" xmlns="http://www.w3.org/2000/svg"><path d="M70.378 67.38L53.124 50.124c4.628-5.321 7.43-12.264 7.43-19.852C60.555 13.57 46.97 0 30.282 0 13.578 0 .008 13.586.008 30.273c0 16.688 13.586 30.274 30.273 30.274 7.588 0 14.53-2.802 19.852-7.43L67.387 70.37c.41.41.96.63 1.496.63.535 0 1.086-.205 1.495-.63a2.129 2.129 0 000-2.99zM4.243 30.272c0-14.357 11.68-26.022 26.023-26.022 14.357 0 26.022 11.68 26.022 26.022 0 14.342-11.665 26.039-26.022 26.039-14.342 0-26.023-11.681-26.023-26.039z" fill-rule="nonzero" fill="#888"/></svg>